<svg width="24" height="24" viewBox="0 0 24 24" fill="none" xmlns="http://www.w3.org/2000/svg">
<path d="M16.0372 7.78325H15.0909C14.9894 7.0219 14.6219 6.32254 14.0548 5.81193C13.4878 5.30133 12.7588 5.01328 12 5C11.2412 5.01328 10.5122 5.30133 9.94517 5.81193C9.37813 6.32254 9.01057 7.0219 8.90912 7.78325H7.96321C7.44277 7.7836 6.94373 7.99299 6.57565 8.36546C6.20758 8.73792 6.00054 9.24302 6 9.76987V17.0129C6.00047 17.5397 6.20736 18.0448 6.57528 18.4173C6.9432 18.7898 7.44209 18.9994 7.96247 19H16.037C16.5574 18.9996 17.0565 18.7901 17.4245 18.4175C17.7926 18.045 17.9995 17.5398 18 17.0129V9.76987C17.9995 9.2431 17.7925 8.73808 17.4245 8.36562C17.0565 7.99317 16.5576 7.78372 16.0372 7.78325ZM12 6.03227C12.4891 6.04303 12.9599 6.22243 13.3346 6.54082C13.7094 6.8592 13.9655 7.2975 14.0608 7.78325H9.93923C10.0345 7.2975 10.2907 6.8592 10.6654 6.54082C11.0401 6.22243 11.5109 6.04303 12 6.03227ZM16.9799 17.0129C16.9796 17.266 16.8802 17.5086 16.7035 17.6876C16.5268 17.8666 16.2871 17.9673 16.0372 17.9677H7.96275C7.71277 17.9673 7.47316 17.8666 7.29646 17.6876C7.11975 17.5086 7.02036 17.266 7.02009 17.0129V9.76987C7.02039 9.51685 7.11981 9.27428 7.29654 9.09537C7.47328 8.91646 7.7129 8.81582 7.96284 8.81552H16.0373C16.2873 8.81587 16.5268 8.91653 16.7035 9.09544C16.8802 9.27434 16.9796 9.51688 16.9799 9.76987V17.0129Z" fill="white" fill-opacity="0.8"/>
</svg>
