<svg width="52" height="56" viewBox="0 0 52 56" fill="none" xmlns="http://www.w3.org/2000/svg">
<g clip-path="url(#clip0_9907_229)">
<path d="M38.75 39.9999C38.627 39.9999 38.504 39.9789 38.387 39.9399L8.76201 29.8149C8.33601 29.6679 8.03901 29.2839 8.00301 28.8354C7.97001 28.3869 8.20551 27.9609 8.60301 27.7524L42.353 10.1274C42.7295 9.93386 43.184 9.96386 43.526 10.2084C43.871 10.4544 44.0495 10.8714 43.988 11.2914L39.863 39.0414C39.8135 39.3714 39.62 39.6624 39.3335 39.8364C39.1565 39.9444 38.954 39.9999 38.75 39.9999ZM11.969 28.5324L37.835 37.3734L41.4365 13.1454L11.969 28.5324Z" fill="white"/>
<path d="M22.25 44.5C22.133 44.5 22.0145 44.482 21.9005 44.4445C21.437 44.2915 21.125 43.861 21.125 43.375V33.25C21.125 32.9665 21.233 32.6905 21.4265 32.482L42.0515 10.357C42.4745 9.90105 43.19 9.87855 43.643 10.3015C44.0975 10.7245 44.1215 11.437 43.6985 11.893L23.375 33.6925V39.9445L27.1295 34.834C27.497 34.3361 28.202 34.225 28.703 34.594C29.204 34.9615 29.3105 35.6665 28.943 36.1675L23.1575 44.0425C22.94 44.335 22.601 44.5 22.25 44.5Z" fill="white"/>
</g>
<defs>
<clipPath id="clip0_9907_229">
<rect width="36" height="36" fill="white" transform="translate(8 10)"/>
</clipPath>
</defs>
</svg>
