<svg width="52" height="56" viewBox="0 0 52 56" fill="none" xmlns="http://www.w3.org/2000/svg">
<path d="M33.475 29.445C34.0837 29.2275 34.4925 28.6462 34.4925 28C34.4925 27.3537 34.0837 26.7725 33.4775 26.555L30.69 25.55C27.9375 24.5587 25.79 22.41 24.7975 19.6575L23.7925 16.87C23.5737 16.2637 22.9937 15.855 22.35 15.855C21.705 15.855 21.1237 16.2625 20.9037 16.87L19.9 19.6575C18.9075 22.4112 16.76 24.5587 14.0062 25.55L11.2212 26.555C10.6125 26.7737 10.2037 27.3537 10.2037 28C10.2037 28.6462 10.6125 29.2262 11.2187 29.445L14.0062 30.45C16.7587 31.4412 18.9062 33.5887 19.8987 36.3425L20.9037 39.1312C21.1225 39.7375 21.7037 40.145 22.3487 40.145C22.9937 40.145 23.575 39.7362 23.7925 39.13L24.7975 36.3425C25.7887 33.59 27.9375 31.4425 30.69 30.45L33.475 29.445ZM29.8425 28.0975C26.3862 29.3425 23.69 32.0387 22.445 35.495L22.3475 35.765L22.25 35.495C21.0037 32.0387 18.3075 29.3425 14.8525 28.0975L14.5837 28L14.8537 27.9025C18.31 26.6575 21.0062 23.9612 22.2512 20.505L22.3487 20.235L22.4462 20.505C23.6912 23.9612 26.3875 26.6575 29.8425 27.9025L30.1125 28L29.8425 28.0975Z" fill="white"/>
<path d="M29.185 17.3287L30.5962 17.8375C31.8175 18.2775 32.7687 19.23 33.2087 20.45L33.7162 21.86C33.915 22.4125 34.4425 22.7837 35.0287 22.7837C35.615 22.7837 36.1437 22.4125 36.3412 21.8612L36.85 20.45C37.29 19.2288 38.2425 18.2762 39.4625 17.8375L40.875 17.3287C41.4237 17.13 41.795 16.6037 41.7962 16.02C41.7975 15.4362 41.43 14.9075 40.875 14.705L39.4625 14.1962C38.2425 13.7562 37.29 12.8038 36.85 11.5838L36.3412 10.1725C36.1425 9.62 35.6162 9.25 35.03 9.25C34.4425 9.25 33.915 9.62125 33.7175 10.1725L33.2087 11.5838C32.7687 12.805 31.8162 13.7562 30.5962 14.1962L29.1812 14.7062C28.6312 14.9062 28.2612 15.435 28.2625 16.02C28.2637 16.605 28.635 17.1312 29.185 17.3287ZM35.03 13.5687C35.6225 14.5837 36.4637 15.425 37.4775 16.0163C36.4625 16.6088 35.6212 17.45 35.03 18.4638C34.4375 17.45 33.5962 16.6075 32.5825 16.0163C33.5962 15.4237 34.4375 14.5825 35.03 13.5687Z" fill="white"/>
<path d="M40.8737 38.6713L39.4625 38.1626C38.2425 37.7226 37.29 36.7701 36.85 35.5501L36.3412 34.1388C36.1425 33.5876 35.615 33.2163 35.0287 33.2163C34.4412 33.2163 33.9137 33.5876 33.7162 34.1388L33.2075 35.5501C32.7675 36.7713 31.815 37.7238 30.595 38.1626L29.185 38.6701C28.6337 38.8676 28.2625 39.3951 28.2612 39.9801C28.26 40.5651 28.6287 41.0938 29.1837 41.2951L30.595 41.8038C31.8162 42.2438 32.7687 43.1951 33.2075 44.4163L33.715 45.8263C33.915 46.3788 34.4425 46.7501 35.03 46.7501C35.6175 46.7501 36.145 46.3788 36.3425 45.8276L36.8512 44.4163C37.2912 43.1963 38.2437 42.2438 39.4637 41.8038L40.8812 41.2938C41.43 41.0926 41.7987 40.5651 41.7975 39.9801C41.7962 39.3951 41.4237 38.8701 40.8737 38.6713ZM35.03 42.4313C34.4375 41.4163 33.5962 40.5751 32.5825 39.9838C33.5962 39.3913 34.4387 38.5501 35.03 37.5363C35.6225 38.5501 36.4637 39.3926 37.4775 39.9838C36.4637 40.5763 35.6212 41.4176 35.03 42.4313Z" fill="white"/>
</svg>
