<svg width="52" height="56" viewBox="0 0 52 56" fill="none" xmlns="http://www.w3.org/2000/svg">
<path d="M31.6926 19.2932C32.0348 19.2134 32.3909 19.1727 32.7506 19.1727C34.8629 19.1727 36.7236 20.597 37.2703 22.6164L37.2876 22.6846C37.2949 22.7132 37.3025 22.742 37.3092 22.7706C37.3124 22.7845 37.3155 22.7984 37.3186 22.8127C37.4378 23.3295 37.8976 23.6795 38.4068 23.6795C38.4877 23.6795 38.57 23.6706 38.6522 23.6522C39.2519 23.5177 39.6306 22.9242 39.4998 22.3238C39.4965 22.3082 39.4929 22.2923 39.4893 22.2766C38.941 19.8176 40.4071 17.3843 42.8501 16.7239C42.8988 16.7103 42.9487 16.6982 42.9976 16.6859L43.0361 16.6763C43.6316 16.5272 43.9952 15.9259 43.8511 15.3293C43.7067 14.733 43.1087 14.3655 42.5106 14.5039C42.1683 14.5837 41.8122 14.6243 41.4526 14.6243C39.3418 14.6243 37.4818 13.2 36.9333 11.1735L36.8774 10.9567C36.7247 10.3643 36.1245 10.006 35.5297 10.1499C34.9356 10.2952 34.5685 10.8914 34.7062 11.4873C35.2771 13.9571 33.809 16.4097 31.3533 17.0733C31.3046 17.087 31.2547 17.099 31.2058 17.1113L31.1673 17.1209C30.5718 17.27 30.2082 17.8713 30.3523 18.4679C30.4967 19.0643 31.0951 19.4318 31.6928 19.2934L31.6926 19.2932ZM36.6516 14.9178C37.3434 15.5839 38.1698 16.1041 39.0783 16.4376C38.4039 17.135 37.8837 17.9679 37.5529 18.8785C36.8608 18.2127 36.0345 17.6927 35.1258 17.3594C35.8009 16.6616 36.3208 15.8289 36.6516 14.9178Z" fill="white"/>
<path d="M13.3632 19.2932C13.7054 19.2134 14.0615 19.1727 14.4212 19.1727C16.5335 19.1727 18.3942 20.597 18.9409 22.6164L18.9582 22.6846C18.9655 22.7132 18.9731 22.742 18.9798 22.7706C18.983 22.7845 18.9861 22.7984 18.9892 22.8127C19.1084 23.3295 19.5682 23.6795 20.0774 23.6795C20.1583 23.6795 20.2405 23.6706 20.3228 23.6522C20.9225 23.5177 21.3012 22.9242 21.1704 22.3238C21.1671 22.3082 21.1635 22.2923 21.1599 22.2766C20.6116 19.8176 22.0777 17.3843 24.5207 16.7239C24.5694 16.7103 24.6193 16.6982 24.6682 16.6859L24.7067 16.6763C25.3021 16.5272 25.6658 15.9259 25.5216 15.3293C25.3772 14.733 24.7791 14.3655 24.1811 14.5039C23.8389 14.5837 23.4828 14.6243 23.1232 14.6243C21.0124 14.6243 19.1524 13.2 18.6039 11.1735L18.548 10.9567C18.3951 10.3643 17.7954 10.006 17.2003 10.1499C16.6062 10.2952 16.2391 10.8914 16.3768 11.4873C16.9477 13.9571 15.4796 16.4097 13.0239 17.0733C12.9752 17.087 12.9253 17.099 12.8764 17.1113L12.8379 17.1209C12.2424 17.27 11.8788 17.8713 12.0229 18.4679C12.1673 19.0643 12.7655 19.4318 13.3634 19.2934L13.3632 19.2932ZM18.3222 14.9178C19.014 15.5839 19.8404 16.1041 20.7488 16.4376C20.0745 17.135 19.5543 17.9679 19.2235 18.8785C18.5314 18.2127 17.705 17.6927 16.7964 17.3594C17.4715 16.6616 17.9914 15.8289 18.3222 14.9178Z" fill="white"/>
<path d="M42.5106 32.6094C42.1683 32.6892 41.8122 32.7299 41.4526 32.7299C39.3418 32.7299 37.4818 31.3055 36.9333 29.279L36.8774 29.0622C36.7247 28.4701 36.1245 28.1113 35.5297 28.2555C34.9356 28.4008 34.5685 28.9969 34.7062 29.5929C35.2771 32.0626 33.809 34.5152 31.3533 35.1789C31.3046 35.1925 31.2547 35.2046 31.2058 35.2169L31.1673 35.2265C30.5718 35.3756 30.2082 35.9769 30.3523 36.5735C30.4967 37.1698 31.0951 37.5373 31.6928 37.3989C32.0351 37.3191 32.3911 37.2785 32.7508 37.2785C34.8632 37.2785 36.7238 38.7028 37.2706 40.7222L37.2878 40.7903C37.2952 40.8189 37.3028 40.8478 37.3095 40.8764C37.3126 40.8903 37.3157 40.9041 37.3189 40.9184C37.438 41.4352 37.8978 41.7853 38.407 41.7853C38.4879 41.7853 38.5702 41.7763 38.6524 41.758C39.2522 41.6234 39.6308 41.03 39.5001 40.4296C39.4967 40.4139 39.4931 40.398 39.4896 40.3824C38.9412 37.9233 40.4074 35.49 42.8503 34.8297C42.899 34.8161 42.9489 34.804 42.9978 34.7917L43.0363 34.7821C43.6318 34.633 43.9955 34.0317 43.8513 33.4351C43.7071 32.8385 43.1089 32.4699 42.5108 32.6096L42.5106 32.6094ZM37.5531 36.9843C36.8611 36.3184 36.0347 35.7985 35.126 35.4652C35.8011 34.7673 36.321 33.9347 36.6518 33.0236C37.3437 33.6897 38.1701 34.2099 39.0785 34.5434C38.4041 35.2408 37.8839 36.0736 37.5531 36.9843Z" fill="white"/>
<path d="M32.6717 26.2066C33.3908 25.4869 33.3908 24.316 32.6717 23.5969L30.3948 21.3181C30.0463 20.9694 29.583 20.7773 29.0899 20.7773C28.5968 20.7773 28.1336 20.9694 27.7847 21.3183L23.9489 25.1572C23.9458 25.1603 23.9438 25.1641 23.9406 25.1672L8.84055 40.2796C8.12168 40.9994 8.12191 42.17 8.84055 42.8891L11.1163 45.1664C11.465 45.5156 11.9284 45.7076 12.4215 45.7076C12.9146 45.7076 13.378 45.5156 13.7265 45.1666L28.8355 30.0455L32.6712 26.2066H32.6717ZM29.0899 23.1745L30.8155 24.9017L28.0451 27.6743L26.3194 25.9471L29.0899 23.1745ZM12.4215 43.3104L10.6967 41.5841L24.7402 27.5293L26.465 29.2556L12.4215 43.3104Z" fill="white"/>
</svg>
