<svg width="52" height="56" viewBox="0 0 52 56" fill="none" xmlns="http://www.w3.org/2000/svg">
<path fill-rule="evenodd" clip-rule="evenodd" d="M26 13.146C16.2085 13.146 8.27084 21.0836 8.27084 30.8752C8.27084 35.9959 10.44 40.6078 13.9137 43.8462C14.4945 44.3877 14.5263 45.2971 13.985 45.8779C13.4436 46.4586 12.534 46.4904 11.9533 45.9492C7.92065 42.1898 5.39584 36.8262 5.39584 30.8752C5.39584 19.4958 14.6206 10.271 26 10.271C37.3795 10.271 46.6042 19.4958 46.6042 30.8752C46.6042 36.8262 44.0794 42.1898 40.0467 45.9492C39.4659 46.4904 38.5565 46.4586 38.015 45.8779C37.4738 45.2971 37.5056 44.3877 38.0863 43.8462C41.5601 40.6078 43.7292 35.9959 43.7292 30.8752C43.7292 21.0836 35.7915 13.146 26 13.146Z" fill="white"/>
<path fill-rule="evenodd" clip-rule="evenodd" d="M26 19.8545C19.9134 19.8545 14.9792 24.7888 14.9792 30.8753C14.9792 34.0585 16.3269 36.9247 18.487 38.9385C19.0677 39.4798 19.0996 40.3895 18.5583 40.9702C18.0169 41.5508 17.1073 41.5828 16.5266 41.0413C13.8076 38.5067 12.1042 34.8888 12.1042 30.8753C12.1042 23.2009 18.3256 16.9795 26 16.9795C33.6745 16.9795 39.8959 23.2009 39.8959 30.8753C39.8959 34.8888 38.1925 38.5067 35.4735 41.0413C34.8928 41.5828 33.9831 41.5508 33.4419 40.9702C32.9004 40.3895 32.9324 39.4798 33.513 38.9385C35.6731 36.9247 37.0209 34.0585 37.0209 30.8753C37.0209 24.7888 32.0866 19.8545 26 19.8545Z" fill="white"/>
<path fill-rule="evenodd" clip-rule="evenodd" d="M26 26.5625C23.6184 26.5625 21.6875 28.4934 21.6875 30.875C21.6875 32.1206 22.2138 33.2411 23.0602 34.0304C23.641 34.5717 23.6728 35.4813 23.1315 36.0621C22.5901 36.6426 21.6805 36.6746 21.0998 36.1332C19.6944 34.8231 18.8125 32.9509 18.8125 30.875C18.8125 26.9054 22.0305 23.6875 26 23.6875C29.9696 23.6875 33.1875 26.9054 33.1875 30.875C33.1875 32.9509 32.3056 34.8231 30.9001 36.1332C30.3194 36.6746 29.4099 36.6426 28.8685 36.0621C28.3272 35.4813 28.359 34.5717 28.9398 34.0304C29.7862 33.2411 30.3125 32.1206 30.3125 30.875C30.3125 28.4934 28.3816 26.5625 26 26.5625Z" fill="white"/>
</svg>
