<svg width="52" height="56" viewBox="0 0 52 56" fill="none" xmlns="http://www.w3.org/2000/svg">
<path d="M11.8405 45.4159C11.3677 45.4165 10.9005 45.314 10.4714 45.1157C10.0423 44.9173 9.66162 44.6277 9.35584 44.2672C9.05006 43.9067 8.82655 43.4838 8.70088 43.0281C8.57521 42.5723 8.55041 42.0947 8.62818 41.6284L9.73683 34.965C9.90352 33.9516 10.3847 33.0163 11.1122 32.2915L31.3778 12.0259C32.3159 11.1305 33.563 10.6309 34.8599 10.6309C36.1568 10.6309 37.4038 11.1305 38.342 12.0259L41.9741 15.6588C42.4314 16.116 42.7942 16.6587 43.0418 17.2561C43.2893 17.8536 43.4167 18.4939 43.4167 19.1405C43.4167 19.7872 43.2893 20.4275 43.0418 21.0249C42.7942 21.6224 42.4314 22.1651 41.9741 22.6223L21.7085 42.8878C20.9838 43.6152 20.0489 44.0963 19.0358 44.2632L12.3716 45.3718C12.1961 45.401 12.0184 45.4158 11.8405 45.4159ZM34.8599 13.75C34.6289 13.7495 34.4002 13.7947 34.1868 13.8831C33.9734 13.9715 33.7797 14.1012 33.6167 14.2649L13.3511 34.5305C13.0916 34.7895 12.9199 35.1234 12.8602 35.4852L11.7516 42.1479L18.5147 41.1397C18.8765 41.0801 19.2105 40.9083 19.4695 40.6488L39.7351 20.3833C39.8983 20.2202 40.0278 20.0265 40.1162 19.8133C40.2045 19.6001 40.25 19.3716 40.25 19.1409C40.25 18.9101 40.2045 18.6816 40.1162 18.4685C40.0278 18.2553 39.8983 18.0616 39.7351 17.8985L36.1023 14.2649C35.9396 14.1011 35.746 13.9713 35.5327 13.8829C35.3194 13.7945 35.0907 13.7493 34.8599 13.75Z" fill="white"/>
<path d="M37.371 26.5697C37.163 26.57 36.9571 26.5291 36.7649 26.4495C36.5728 26.3699 36.3984 26.2531 36.2515 26.1058L27.8996 17.7539C27.7526 17.6069 27.636 17.4324 27.5564 17.2403C27.4769 17.0482 27.4359 16.8423 27.4359 16.6344C27.4359 16.4265 27.4769 16.2207 27.5564 16.0286C27.636 15.8365 27.7526 15.662 27.8996 15.515C28.0466 15.368 28.2211 15.2513 28.4132 15.1718C28.6053 15.0922 28.8112 15.0513 29.0191 15.0513C29.227 15.0513 29.4328 15.0922 29.6249 15.1718C29.817 15.2513 29.9915 15.368 30.1385 15.515L38.4905 23.8669C38.7118 24.0883 38.8626 24.3704 38.9236 24.6775C38.9847 24.9846 38.9533 25.3029 38.8335 25.5922C38.7137 25.8815 38.5108 26.1287 38.2505 26.3027C37.9902 26.4767 37.6841 26.5697 37.371 26.5697Z" fill="white"/>
<path d="M41.8334 45.4167H26C25.5801 45.4167 25.1774 45.2499 24.8804 44.9529C24.5835 44.656 24.4167 44.2533 24.4167 43.8333C24.4167 43.4134 24.5835 43.0107 24.8804 42.7137C25.1774 42.4168 25.5801 42.25 26 42.25H41.8334C42.2533 42.25 42.656 42.4168 42.9529 42.7137C43.2499 43.0107 43.4167 43.4134 43.4167 43.8333C43.4167 44.2533 43.2499 44.656 42.9529 44.9529C42.656 45.2499 42.2533 45.4167 41.8334 45.4167Z" fill="white"/>
</svg>
